<svg xmlns="http://www.w3.org/2000/svg" xmlns:svg="http://www.w3.org/2000/svg" id="svg38" width="64" height="64" version="1.1" viewBox="0 0 16.933 16.933"><defs id="defs10"><filter id="filter2761" width="1.048" height="1.048" x="-.024" y="-.024" color-interpolation-filters="sRGB"><feGaussianBlur id="feGaussianBlur2" stdDeviation=".146"/></filter><linearGradient id="linearGradient4673" x1="1.257" x2="15.644" y1="15.429" y2="1.108" gradientTransform="translate(-2.4530086,-3.8501958)" gradientUnits="userSpaceOnUse"><stop id="stop5" offset="0" stop-color="#32dcff"/><stop id="stop7" offset="1" stop-color="#3296ff"/></linearGradient><style id="style867" type="text/css"/><filter id="filter1057" width="1.054" height="1.054" x="-.027" y="-.027" color-interpolation-filters="sRGB"><feGaussianBlur id="feGaussianBlur869" stdDeviation=".619"/></filter><linearGradient id="linearGradient1053" x1="-127" x2="-72" y1="60" y2="5" gradientTransform="matrix(0.26457812,0,0,0.26457812,34.792022,-0.13493486)" gradientUnits="userSpaceOnUse"><stop id="stop872" offset="0" stop-color="#32d7ff"/><stop id="stop874" offset="1" stop-color="#329bff"/></linearGradient><style id="style877" type="text/css"/><style id="style879" type="text/css"/><style id="style881" type="text/css"/><style id="style883" type="text/css"/><style id="style885" type="text/css"/><style id="style887" type="text/css"/><style id="style889" type="text/css"/></defs><metadata id="metadata12"/><rect id="rect905" width="55" height="55" x="4.5" y="4.5" fill="#141414" stroke-linecap="round" stroke-width="2.744" filter="url(#filter1057)" opacity=".3" ry="15" transform="scale(0.26457812)"/><rect id="rect907" width="14.552" height="14.552" x="1.191" y="1.191" fill="url(#linearGradient1053)" stroke-linecap="round" stroke-width=".726" ry="3.969" style="fill:url(#linearGradient1053)"/><g id="g36" transform="translate(3.9658014e-4,-0.0544433)"><g id="g24" fill="#fff" transform="matrix(0.51035,0,0,0.51035,-2.994,9.6615)"><circle cx="28.377" cy="4.035" r="3.44" opacity=".25" style="paint-order:stroke markers fill" id="circle18"/><g transform="translate(19.91,-284.5)" style="paint-order:stroke markers fill" id="g22"><path id="path20" fill="#fff" stroke-width="4.836" d="m 29.445,11.615 v 5.998 a 14.072,14.072 0 0 0 -5.4238,2.2402 l -4.2324,-4.2344 -3.6172,3.6113 4.248,4.248 a 14.072,14.072 0 0 0 -2.2461,5.4082 h -6 v 5.1172 h 6.0039 a 14.072,14.072 0 0 0 2.2363,5.4141 l -4.2422,4.2422 3.6172,3.6172 4.2539,-4.252 a 14.072,14.072 0 0 0 5.4023,2.2441 v 6.0059 h 5.1172 v -6.0078 a 14.072,14.072 0 0 0 5.4141,-2.2324 l 4.2422,4.2422 3.6113,-3.6133 -4.248,-4.252 a 14.072,14.072 0 0 0 2.25,-5.4082 h 6.002 v -5.1172 h -6.002 a 14.072,14.072 0 0 0 -2.2344,-5.416 l 4.2383,-4.2344 -3.6172,-3.623 -4.2461,4.2461 a 14.072,14.072 0 0 0 -5.4102,-2.248 v -5.9961 h -5.1172 z m 2.5586,12.15 a 7.6741,7.6741 0 0 1 7.6738,7.6758 7.6741,7.6741 0 0 1 -7.6738,7.6777 7.6741,7.6741 0 0 1 -7.6797,-7.6777 7.6741,7.6741 0 0 1 7.6797,-7.6758 z" transform="matrix(0.2068,0,0,0.2068,1.8486,282.03)"/></g></g><g id="g34" transform="matrix(0.70879,0,0,0.70879,1.1378,1.1211)"><g id="g30" fill="none" stroke="#fff" stroke-dashoffset=".421" stroke-width="2.381" transform="translate(0.048526,0.0064609)"><circle id="circle26" cx="8.419" cy="8.327" r="4.154" opacity=".2"/><path id="path28" d="M 11.198,11.399 A 4.1537,4.1537 0 0 1 8.4185,12.466 4.1537,4.1537 0 0 1 4.2648,8.3123 4.1537,4.1537 0 0 1 8.4185,4.1586 4.1537,4.1537 0 0 1 11.198,5.2257"/></g><circle id="circle32" cx="8.467" cy="8.326" r="1.988" fill="#fff"/></g></g><circle id="circle893" cx="-279.628" cy="-338.475" r="0" fill="#5e4aa6" style="stroke-width:.264578"/><circle id="circle895" cx="-248.288" cy="-348.873" r="0" style="fill:#5e4aa6;stroke-width:.26458"/><circle id="circle897" cx="42.626" cy="-14.051" r="0" fill-rule="evenodd" style="fill:#5e4aa6;stroke-width:.26458"/><circle id="circle899" cx="-227.518" cy="-367.793" r="0" style="fill:#5e4aa6;stroke-width:.26458"/><circle id="circle901" cx="63.395" cy="-32.962" r="0" fill-rule="evenodd" style="fill:#5e4aa6;stroke-width:.26458"/></svg>